# xmcd
#
# Track frame offsets: 
#        150
#        12508
#        24667
#        38563
#        49300
#        62710
#        74684
#        84211
#        94189
#        108030
#        121251
#        133312
#        143728
#        155306
#        165921
#        176923
#        187545
#        201542
#        213126
#        225730
#        235975
#        247180
#        257805
#        270920
#        282154
#        291617
#        301499
#        311542
#
# Disc length: 4293 seconds
#
# Revision: 0
# Processed by: cddbd v1.5.2PL0 Copyright (c) Steve Scherf et al.
# Submitted via: ExactAudioCopy v1.3
#
DISCID=9310c31c
DTITLE=Lefty Frizzell - CD03
DYEAR=2018
DGENRE=Country
TTITLE0=Before You Go, Make Sure You Know
TTITLE1=Two Friends Of Mine In Love
TTITLE2=Hopeless Love
TTITLE3=Then I'll Come Back To You
TTITLE4=Lefty Frizzell and Wayne Raney - The Tragic Letter (The Letter T
TTITLE4=hat You Left)
TTITLE5=Lefty Frizzell and Wayne Raney - Two Hearts Broken Now
TTITLE6=Lefty Frizzell and Wayne Raney - You Can Always Count On Me
TTITLE7=Lefty Frizzell and Wayne Raney - I've Been Away Way Too Long
TTITLE8=Run 'Em Off
TTITLE9=The Darkest Moment (Is Just Before The Light Of Day)
TTITLE10=You're Too Late
TTITLE11=My Little Her And Him
TTITLE12=I Love You Mostly
TTITLE13=You're There, I'm Here
TTITLE14=Let It Be So
TTITLE15=Mama!
TTITLE16=Making Believe
TTITLE17=Moonlight, Darling And You
TTITLE18=I'll Sit Alone And Cry
TTITLE19=A Forest Fire (Is In Your Heart)
TTITLE20=Sweet Lies
TTITLE21=Your Tomorrows Will Never Come
TTITLE22=It Gets Late So Early
TTITLE23=I'm Lost Between Right And Wrong
TTITLE24=Promises (Promises, Promises)
TTITLE25=Today Is That Tomorrow (I Dreamed Of Yesterday)
TTITLE26=My Love And Baby's Gone
TTITLE27=First To Have A Second Chance
EXTD=
EXTT0=
EXTT1=
EXTT2=
EXTT3=
EXTT4=
EXTT5=
EXTT6=
EXTT7=
EXTT8=
EXTT9=
EXTT10=
EXTT11=
EXTT12=
EXTT13=
EXTT14=
EXTT15=
EXTT16=
EXTT17=
EXTT18=
EXTT19=
EXTT20=
EXTT21=
EXTT22=
EXTT23=
EXTT24=
EXTT25=
EXTT26=
EXTT27=
PLAYORDER=
